<svg aria-hidden="true" style="position: absolute; width: 0; height: 0; overflow: hidden;" version="1.1" xmlns="http://www.w3.org/2000/svg" xmlns:xlink="http://www.w3.org/1999/xlink">
<defs>
<symbol id="icon-linkedin" viewBox="0 0 32 32">
<path d="M32.030 32v-11.724c0-5.766-1.243-10.186-7.97-10.186-3.243 0-5.399 1.778-6.282 3.459h-0.078v-2.931h-6.366v21.381h6.643v-10.619c0-2.787 0.523-5.477 3.964-5.477 3.405 0 3.441 3.171 3.441 5.622v10.426h6.649v0.048z"></path>
<path d="M0.523 10.619h6.643v21.381h-6.643v-21.381z"></path>
<path d="M3.844 0c-2.12 0-3.844 1.73-3.844 3.844s1.724 3.892 3.844 3.892c2.12 0 3.844-1.778 3.844-3.892s-1.724-3.844-3.844-3.844z"></path>
</symbol>
<symbol id="icon-phone" viewBox="0 0 20 32">
<path d="M8.73 27.659h2.91c0.802 0 1.455-0.653 1.455-1.46s-0.653-1.46-1.455-1.46h-2.91c-0.802 0-1.455 0.653-1.455 1.46s0.653 1.46 1.455 1.46z"></path>
<path d="M20.365 4.379c0-1.191-0.461-2.267-1.277-3.112-0.816-0.807-1.93-1.268-3.088-1.268-3.227 0-8.408 0-11.635 0-1.157 0-2.267 0.461-3.088 1.268-0.816 0.845-1.277 1.921-1.277 3.112v23.241c0 1.191 0.461 2.266 1.277 3.112 0.821 0.807 1.93 1.268 3.088 1.268h11.635c1.157 0 2.271-0.461 3.088-1.268 0.816-0.845 1.277-1.921 1.277-3.112v-23.241zM17.455 4.379v23.241c0 0.384-0.154 0.768-0.427 1.037-0.269 0.269-0.639 0.423-1.028 0.423-3.227 0-8.408 0-11.635 0-0.384 0-0.759-0.154-1.028-0.423-0.274-0.269-0.427-0.653-0.427-1.037 0-5.57 0-17.671 0-23.241 0-0.384 0.154-0.768 0.427-1.037 0.269-0.269 0.643-0.423 1.028-0.423h11.635c0.389 0 0.759 0.154 1.028 0.423 0.274 0.269 0.427 0.653 0.427 1.037z"></path>
</symbol>
<symbol id="icon-email" viewBox="0 0 32 32">
<path d="M28.453 27.208c0.703 0 1.312-0.25 1.828-0.708l-8.849-8.833c-0.213 0.167-0.422 0.292-0.615 0.458-0.661 0.458-1.198 0.833-1.615 1.125-0.411 0.292-0.958 0.542-1.646 0.833s-1.323 0.417-1.917 0.417h-0.036c-0.594 0-1.229-0.125-1.917-0.417s-1.234-0.542-1.646-0.833c-0.417-0.292-0.953-0.667-1.615-1.125-0.182-0.167-0.391-0.292-0.609-0.458l-8.854 8.833c0.516 0.458 1.125 0.708 1.828 0.708h25.661z"></path>
<path d="M1.76 12.083c-0.661-0.417-1.25-0.917-1.76-1.5v13.458l7.802-7.792c-1.563-1.083-3.573-2.458-6.042-4.167z"></path>
<path d="M29.495 12.083c-2.37 1.625-4.391 3-6.052 4.167l7.797 7.792v-13.458c-0.5 0.542-1.078 1.083-1.745 1.5z"></path>
<path d="M28.448 2.667h-25.656c-0.896 0-1.589 0.292-2.068 0.917-0.484 0.583-0.724 1.333-0.724 2.25 0 0.75 0.318 1.542 0.958 2.375 0.641 0.875 1.318 1.542 2.042 2.042 0.396 0.25 1.583 1.083 3.573 2.458 1.073 0.75 2.005 1.417 2.807 1.958 0.682 0.458 1.271 0.875 1.76 1.25 0.057 0 0.141 0.083 0.26 0.167 0.125 0.083 0.281 0.208 0.479 0.333 0.38 0.292 0.693 0.5 0.943 0.667s0.552 0.375 0.906 0.583c0.354 0.208 0.687 0.375 1 0.458 0.318 0.125 0.604 0.167 0.875 0.167h0.031c0.271 0 0.557-0.042 0.875-0.167 0.313-0.083 0.646-0.25 1-0.458s0.656-0.417 0.906-0.583c0.25-0.167 0.568-0.375 0.943-0.667 0.198-0.125 0.354-0.25 0.479-0.333 0.12-0.083 0.208-0.125 0.26-0.167 0.38-0.292 0.974-0.708 1.766-1.25 1.448-1 3.573-2.458 6.396-4.417 0.849-0.625 1.557-1.333 2.125-2.167s0.854-1.708 0.854-2.625c0-0.75-0.276-1.417-0.828-1.958s-1.208-0.833-1.964-0.833z"></path>
</symbol>
<symbol id="icon-behance" viewBox="0 0 32 32">
<path d="M15.33 19.821c0-2.286-1.089-4-3.344-4.643 1.643-0.786 2.5-1.964 2.5-3.786 0-3.643-2.719-4.536-5.853-4.536h-8.634v18.25h8.875c3.326 0 6.455-1.571 6.455-5.286zM4.027 9.964h3.777c1.451 0 2.754 0.429 2.754 2.107 0 1.536-1.013 2.143-2.451 2.143h-4.080v-4.25zM4.022 22v-5h4.388c1.772 0 2.893 0.714 2.893 2.607 0 1.821-1.339 2.393-2.978 2.393h-4.304z"></path>
<path d="M23.308 25.464c3.165 0 5.214-1.429 6.205-4.429h-3.214c-0.348 1.107-1.772 1.714-2.879 1.714-2.134 0-3.255-1.25-3.255-3.357h9.563c0.304-4.25-2.058-7.857-6.424-7.857-4.040 0-6.781 3.036-6.781 7 0 4.107 2.598 6.929 6.786 6.929zM23.192 14.286c1.83 0 2.75 1.071 2.902 2.821h-5.924c0.121-1.75 1.277-2.821 3.022-2.821z"></path>
<path d="M19.429 7.821h7.424v1.786h-7.424v-1.786z"></path>
</symbol>
<symbol id="icon-dribbble" viewBox="0 0 32 32">
<path d="M16 0c-8.821 0-16 7.184-16 16.019 0 8.797 7.179 15.981 16 15.981 8.826 0 16.005-7.184 16.005-15.981 0-8.835-7.179-16.019-16.005-16.019zM26.43 7.529c1.796 2.228 2.9 5.032 2.992 8.067-3.328-0.691-6.339-0.615-8.999-0.077-0.48-1.152-0.98-2.228-1.484-3.227 2.896-1.268 5.417-2.843 7.491-4.763zM24.624 5.724c-2.055 1.882-4.437 3.265-6.876 4.264-1.791-3.265-3.505-5.724-4.547-7.107 0.903-0.192 1.839-0.307 2.8-0.307 3.285 0 6.29 1.191 8.624 3.15zM10.607 3.688c0.787 1.037 2.665 3.611 4.682 7.222-5.071 1.652-9.988 1.921-12.351 1.959 0.984-4.11 3.866-7.491 7.669-9.181zM2.583 15.443c0.024 0 0.048 0 0.077 0 1.633 0 4.624-0.115 8.144-0.73 2.007-0.384 3.914-0.884 5.7-1.498 0.466 0.922 0.932 1.921 1.378 2.958-2.502 0.807-4.615 1.959-6.286 3.112-2.804 1.921-4.768 4.072-5.839 5.378-1.988-2.343-3.188-5.34-3.188-8.643 0-0.192 0.005-0.384 0.014-0.576zM7.606 26.468c0.927-1.152 2.804-3.265 5.522-5.109 1.849-1.268 3.76-2.228 5.729-2.843 1.138 2.958 2.113 6.223 2.694 9.719-1.69 0.768-3.568 1.191-5.551 1.191-3.174 0-6.094-1.114-8.394-2.958zM23.918 26.852c-0.6-3.189-1.493-6.185-2.526-8.951 2.54-0.423 5.167-0.307 7.861 0.269-0.581 3.573-2.555 6.646-5.335 8.682z"></path>
</symbol>
<symbol id="icon-location" viewBox="0 0 23 32">
<path d="M11.629 0c-6.412 0-11.629 5.2-11.629 11.586 0 7.921 10.408 19.542 10.848 20.031 0.419 0.489 1.143 0.489 1.557 0 0.445-0.489 10.853-12.109 10.853-20.031 0-6.386-5.217-11.586-11.629-11.586zM11.629 17.413c-3.228 0-5.849-2.617-5.849-5.828s2.622-5.828 5.849-5.828c3.224 0 5.85 2.617 5.85 5.828s-2.626 5.828-5.849 5.828z"></path>
</symbol>
</defs>
</svg>
